<svg xmlns="http://www.w3.org/2000/svg">
  <!-- Sente icon set (SEN-61): 24-unit, stroke currentColor 1.8, round caps.
       Use as <svg class="i"><use href="icons.svg#i-home"/></svg>. -->
  <symbol id="i-home" viewBox="0 0 24 24"><path d="M3 11l9-7 9 7v9a1 1 0 0 1-1 1h-5v-6H9v6H4a1 1 0 0 1-1-1z"/></symbol>
  <symbol id="i-markets" viewBox="0 0 24 24"><path d="M3 17l5-6 4 4 8-9"/><path d="M15 6h5v5"/></symbol>
  <symbol id="i-agents" viewBox="0 0 24 24"><circle cx="8" cy="9" r="4"/><circle cx="16" cy="9" r="4"/><circle cx="12" cy="16" r="4"/></symbol>
  <symbol id="i-portfolio" viewBox="0 0 24 24"><path d="M12 3a9 9 0 1 0 9 9h-9z"/><path d="M15 3.5A9 9 0 0 1 20.5 9H15z"/></symbol>
  <symbol id="i-trade" viewBox="0 0 24 24"><path d="M7 4v16M7 4L3 8M7 4l4 4"/><path d="M17 20V4M17 20l-4-4M17 20l4-4"/></symbol>
  <symbol id="i-board" viewBox="0 0 24 24"><path d="M5 20v-8M12 20V4M19 20v-5"/></symbol>
  <symbol id="i-account" viewBox="0 0 24 24"><circle cx="12" cy="8" r="4"/><path d="M4 21c1.5-4 4.5-6 8-6s6.5 2 8 6"/></symbol>
  <symbol id="i-search" viewBox="0 0 24 24"><circle cx="11" cy="11" r="7"/><path d="M20 20l-4-4"/></symbol>
  <symbol id="i-star" viewBox="0 0 24 24"><path d="M12 3l2.7 5.6 6.1.9-4.4 4.3 1 6.1L12 17l-5.4 2.9 1-6.1L3.2 9.5l6.1-.9z"/></symbol>
  <symbol id="i-bell" viewBox="0 0 24 24"><path d="M6 16V11a6 6 0 1 1 12 0v5l2 2H4z"/><path d="M10 21h4"/></symbol>
  <symbol id="i-eye" viewBox="0 0 24 24"><path d="M2 12s3.5-7 10-7 10 7 10 7-3.5 7-10 7S2 12 2 12z"/><circle cx="12" cy="12" r="3"/></symbol>
  <symbol id="i-eye-off" viewBox="0 0 24 24"><path d="M3 3l18 18"/><path d="M10.6 5.1A10 10 0 0 1 12 5c6.5 0 10 7 10 7a17 17 0 0 1-3.2 4M6.6 6.6C3.8 8.4 2 12 2 12s3.5 7 10 7a9.6 9.6 0 0 0 5.4-1.6"/></symbol>
  <symbol id="i-gear" viewBox="0 0 24 24"><circle cx="12" cy="12" r="3"/><path d="M19.4 15a1.7 1.7 0 0 0 .3 1.8l.1.1a2 2 0 1 1-2.8 2.8l-.1-.1a1.7 1.7 0 0 0-1.8-.3 1.7 1.7 0 0 0-1 1.5V21a2 2 0 1 1-4 0v-.1a1.7 1.7 0 0 0-1.1-1.5 1.7 1.7 0 0 0-1.8.3l-.1.1a2 2 0 1 1-2.8-2.8l.1-.1a1.7 1.7 0 0 0 .3-1.8 1.7 1.7 0 0 0-1.5-1H3a2 2 0 1 1 0-4h.1a1.7 1.7 0 0 0 1.5-1.1 1.7 1.7 0 0 0-.3-1.8l-.1-.1a2 2 0 1 1 2.8-2.8l.1.1a1.7 1.7 0 0 0 1.8.3H9a1.7 1.7 0 0 0 1-1.5V3a2 2 0 1 1 4 0v.1a1.7 1.7 0 0 0 1 1.5 1.7 1.7 0 0 0 1.8-.3l.1-.1a2 2 0 1 1 2.8 2.8l-.1.1a1.7 1.7 0 0 0-.3 1.8V9a1.7 1.7 0 0 0 1.5 1H21a2 2 0 1 1 0 4h-.1a1.7 1.7 0 0 0-1.5 1z"/></symbol>
  <symbol id="i-candles" viewBox="0 0 24 24"><path d="M7 3v4M7 17v4M17 5v3M17 16v4"/><rect x="5" y="7" width="4" height="10" rx="1"/><rect x="15" y="8" width="4" height="8" rx="1"/></symbol>
  <symbol id="i-line" viewBox="0 0 24 24"><path d="M3 17l5-5 4 3 9-9"/></symbol>
  <symbol id="i-clock" viewBox="0 0 24 24"><circle cx="12" cy="12" r="9"/><path d="M12 7v5l3 2"/></symbol>
  <symbol id="i-back" viewBox="0 0 24 24"><path d="M15 5l-7 7 7 7"/></symbol>
  <symbol id="i-chev" viewBox="0 0 24 24"><path d="M9 5l7 7-7 7"/></symbol>
  <symbol id="i-down" viewBox="0 0 24 24"><path d="M6 9l6 6 6-6"/></symbol>
  <symbol id="i-close" viewBox="0 0 24 24"><path d="M6 6l12 12M18 6L6 18"/></symbol>
  <symbol id="i-more" viewBox="0 0 24 24"><circle cx="5" cy="12" r="1"/><circle cx="12" cy="12" r="1"/><circle cx="19" cy="12" r="1"/></symbol>
  <symbol id="i-plus" viewBox="0 0 24 24"><path d="M12 5v14M5 12h14"/></symbol>
  <symbol id="i-key" viewBox="0 0 24 24"><circle cx="8" cy="15" r="4"/><path d="M11 12l9-9M16 7l3 3"/></symbol>
  <symbol id="i-shield" viewBox="0 0 24 24"><path d="M12 3l8 3v6c0 5-3.5 8-8 9-4.5-1-8-4-8-9V6z"/></symbol>
  <symbol id="i-check" viewBox="0 0 24 24"><path d="M5 12l5 5 9-10"/></symbol>
  <symbol id="i-bolt" viewBox="0 0 24 24"><path d="M13 3L5 14h6l-1 7 8-11h-6z"/></symbol>
  <symbol id="i-return" viewBox="0 0 24 24"><path d="M9 14l-5-5 5-5"/><path d="M4 9h11a5 5 0 0 1 0 10h-3"/></symbol>
  <symbol id="i-stop" viewBox="0 0 24 24"><circle cx="12" cy="12" r="9"/><path d="M5.6 5.6l12.8 12.8"/></symbol>
  <symbol id="i-copy" viewBox="0 0 24 24"><rect x="8" y="8" width="12" height="12" rx="2"/><path d="M16 8V5a1 1 0 0 0-1-1H5a1 1 0 0 0-1 1v10a1 1 0 0 0 1 1h3"/></symbol>
  <symbol id="i-fork" viewBox="0 0 24 24"><circle cx="6" cy="5" r="2"/><circle cx="18" cy="5" r="2"/><circle cx="12" cy="19" r="2"/><path d="M6 7v2a3 3 0 0 0 3 3h6a3 3 0 0 0 3-3V7M12 12v5"/></symbol>
  <symbol id="i-target" viewBox="0 0 24 24"><circle cx="12" cy="12" r="9"/><circle cx="12" cy="12" r="5"/><circle cx="12" cy="12" r="1"/></symbol>
  <symbol id="i-send" viewBox="0 0 24 24"><path d="M4 12l16-8-6 16-2-6z"/></symbol>
  <symbol id="i-sliders" viewBox="0 0 24 24"><path d="M4 6h10M18 6h2M4 12h4M12 12h8M4 18h12M20 18h0"/><circle cx="16" cy="6" r="2"/><circle cx="10" cy="12" r="2"/><circle cx="18" cy="18" r="2"/></symbol>
</svg>
